<?xml version="1.0" encoding="UTF-8"?> <svg xmlns="http://www.w3.org/2000/svg" width="85" height="58" viewBox="0 0 85 58" fill="none"><g clip-path="url(#clip0_40_184)"><path d="M0 28.4584C0.0375049 28.2748 0.0217134 28.0636 0.0414528 27.8662C0.118429 27.0131 0.29668 26.1722 0.572444 25.3613C1.32649 23.2156 2.78523 21.8082 4.93486 21.1114C5.69266 20.8693 6.47655 20.7182 7.27004 20.6613C8.23881 20.5632 9.21625 20.5917 10.1777 20.7462C12.2167 21.1193 13.64 22.2563 14.4197 24.1947C14.7521 25.0623 14.9672 25.9704 15.0592 26.895C15.1707 28.0284 15.2123 29.1675 15.1836 30.306C15.1836 30.3652 15.1717 30.4225 15.1619 30.5172C14.4947 30.5468 13.8334 30.5172 13.1721 30.5291C12.5109 30.5409 11.8417 30.5291 11.1765 30.5291H3.17805C3.16361 30.6107 3.15373 30.6931 3.14844 30.7758C3.15465 31.4265 3.26665 32.0718 3.48006 32.6866C3.8158 33.6573 4.48617 34.4767 5.3711 34.9981C6.1205 35.4332 6.94578 35.7219 7.803 35.8488C8.90204 36.0221 10.0169 36.0724 11.1271 35.9988C12.0498 35.9503 12.9687 35.8462 13.8788 35.687C13.9538 35.6751 14.0328 35.6771 14.1453 35.6692C14.1683 35.7752 14.1835 35.8827 14.1907 35.991C14.1919 36.5437 14.0642 37.0892 13.8176 37.5839C13.7115 37.8317 13.5379 38.0446 13.3166 38.1985C13.0954 38.3524 12.8353 38.4411 12.5661 38.4544C11.2905 38.5718 10.0098 38.6252 8.72878 38.6143C7.58537 38.614 6.44772 38.4525 5.34939 38.1347C2.86025 37.3846 1.23569 35.7482 0.473747 33.2432C0.252155 32.4966 0.106658 31.7294 0.0394789 30.9534C0.0372003 30.8001 0.0240073 30.647 0 30.4955L0 28.4584ZM3.15831 27.8326C3.47612 27.9017 12.0292 27.8938 12.2621 27.8326C12.2733 27.796 12.2806 27.7583 12.2839 27.7201C12.2966 26.9804 12.1941 26.2431 11.9799 25.535C11.8278 24.9889 11.5278 24.4954 11.1129 24.1091C10.698 23.7228 10.1845 23.4586 9.6289 23.3459C8.49342 23.0704 7.30592 23.0942 6.18239 23.415C5.5864 23.5709 5.03727 23.8695 4.58233 24.2849C4.12738 24.7003 3.78025 25.2201 3.57086 25.7995C3.38977 26.2627 3.26774 26.7468 3.20766 27.2405C3.18397 27.4379 3.16818 27.6353 3.15831 27.8326Z" fill="#363636"></path><path d="M57.8582 38.6024H54.6999C54.6999 38.482 54.6821 38.3675 54.6821 38.2511C54.6821 36.8825 54.6821 35.5145 54.6821 34.1472V27.3194C54.6928 26.7491 54.6264 26.1801 54.4847 25.6277C54.4289 25.4153 54.359 25.2069 54.2755 25.0039C54.107 24.5691 53.8262 24.1867 53.4617 23.8958C53.0973 23.6049 52.6622 23.4158 52.2008 23.3478C50.8134 23.0986 49.3837 23.4079 48.2234 24.2084C47.8144 24.4867 47.4684 24.8475 47.2077 25.2678C46.9469 25.688 46.7771 26.1583 46.7093 26.6482C46.6495 27.0222 46.6211 27.4006 46.6245 27.7793C46.6245 31.2455 46.6245 34.7105 46.6245 38.1741C46.6245 38.3103 46.6126 38.4484 46.6067 38.6004H43.4997C43.4823 38.5354 43.4685 38.4696 43.4583 38.403C43.4583 38.3241 43.4583 38.2432 43.4583 38.1642V24.7078C43.6004 24.546 43.7307 24.3821 43.8748 24.2321C45.6727 22.3131 48.0757 21.0705 50.6809 20.7126C51.7027 20.5476 52.7453 20.5617 53.7622 20.754C54.4014 20.8672 55.0101 21.1122 55.5494 21.4735C56.0887 21.8347 56.547 22.3043 56.8949 22.8523C56.9304 22.9096 56.9738 22.9648 57.0331 23.0497C57.1357 22.9826 57.2305 22.9214 57.3292 22.8523C58.3275 22.1447 59.4129 21.5689 60.5585 21.1389C61.8567 20.6496 63.2573 20.4955 64.6308 20.6909C66.4942 20.9672 67.8088 21.9581 68.5115 23.7327C68.807 24.4909 68.9854 25.2896 69.0406 26.1014C69.084 26.6383 69.1018 27.1772 69.1018 27.7161C69.1018 31.21 69.1018 34.7045 69.1018 38.1997V38.5708C68.8392 38.636 66.2988 38.6458 65.9533 38.5886C65.9533 38.4702 65.9355 38.3438 65.9355 38.2175V29.2834C65.9355 28.5452 65.9355 27.8069 65.9355 27.0667C65.9348 26.5272 65.8591 25.9904 65.7105 25.4717C65.3157 24.1216 64.3742 23.3715 62.9806 23.2787C61.761 23.1965 60.5483 23.5184 59.5301 24.1946C58.5431 24.8243 58.0457 25.7501 57.9115 26.893C57.8796 27.1807 57.8644 27.4701 57.8661 27.7595C57.8661 31.2245 57.8661 34.6894 57.8661 38.1543L57.8582 38.6024Z" fill="#363636"></path><path d="M40.0848 35.531C40.1874 36.2574 40.219 36.9503 39.9368 37.6175C39.8647 37.8044 39.743 37.9681 39.5847 38.0909C39.4264 38.2137 39.2376 38.291 39.0386 38.3143C37.285 38.6107 35.5015 38.6889 33.7287 38.5472C32.7573 38.4721 31.7988 38.2785 30.8744 37.9708C28.3517 37.1062 26.7409 35.3751 26.0244 32.7971C25.6381 31.306 25.5047 29.7607 25.6296 28.2254C25.674 27.4672 25.8065 26.7166 26.0244 25.9889C26.3023 24.9907 26.8055 24.0696 27.4955 23.2965C28.1854 22.5234 29.0436 21.919 30.0039 21.5298C31.0684 21.0837 32.1958 20.806 33.3457 20.7067C35.1162 20.5394 36.9003 20.5858 38.6596 20.8448C38.862 20.8713 39.055 20.9459 39.2226 21.0623C39.3902 21.1787 39.5275 21.3336 39.6229 21.514C39.8388 21.9089 39.9731 22.3433 40.0177 22.7912C40.0572 23.0734 40.071 23.411 40.0986 23.7465C39.9407 23.7209 39.8282 23.6557 39.7176 23.6321C38.1347 23.2873 36.5139 23.148 34.8953 23.2175C34.0706 23.2453 33.2534 23.3834 32.4654 23.6281C30.5131 24.2519 29.3071 25.5606 28.9123 27.5918C28.6193 29.0786 28.6959 30.6145 29.1353 32.0647C29.7374 34.0387 31.1093 35.2231 33.0674 35.7304C34.1992 35.9993 35.3655 36.0932 36.5258 36.0087C37.637 35.9543 38.7417 35.8063 39.8282 35.5665C39.9012 35.5527 39.9723 35.5488 40.0848 35.531Z" fill="#363636"></path><path d="M19.0447 22.4082C19.0447 22.5878 19.0447 22.7655 19.0447 22.9451C19.0447 27.6681 19.0447 32.3911 19.0447 37.1141C19.0695 37.8634 19.0318 38.6134 18.9322 39.3565C18.6776 40.9021 18.115 42.3174 17.0747 43.5018C17.0414 43.5462 17.0105 43.5923 16.9819 43.6399L19.5915 45.4165C19.6273 45.3992 19.661 45.378 19.6922 45.3533C19.7474 45.298 19.8007 45.2369 19.854 45.1776C20.5494 44.3782 21.0902 43.4565 21.449 42.4595C22.0031 40.8841 22.2705 39.2221 22.2385 37.5523C22.2385 31.9029 22.2385 26.2534 22.2385 20.604C21.9997 22.1614 19.0447 22.4082 19.0447 22.4082Z" fill="#363636"></path><path d="M14.6446 18.3399C14.6446 18.1978 14.6446 18.1011 14.6446 18.0044C14.6446 17.0667 14.6446 16.064 14.6446 15.1263C14.636 14.9624 14.6636 14.7986 14.7254 14.6464C14.7871 14.4943 14.8815 14.3576 15.0019 14.246C15.1864 14.0772 15.3921 13.9333 15.6138 13.8176C16.1182 13.582 16.6614 13.4402 17.2166 13.3991C17.3073 13.392 17.3984 13.392 17.489 13.3991C17.489 13.5077 17.489 13.6183 17.489 13.715C17.489 14.6723 17.489 15.6297 17.489 16.5871C17.5046 16.71 17.4927 16.8349 17.4541 16.9527C17.4155 17.0704 17.3513 17.1782 17.266 17.2681C17.1336 17.4154 16.9774 17.5394 16.8041 17.6352C16.1606 18.0379 15.4282 18.2057 14.6446 18.3399Z" fill="#2093BF"></path><path d="M29.552 5.32959C29.552 5.46382 29.552 5.56252 29.552 5.65924C29.552 6.54751 29.552 7.48119 29.552 8.36946C29.559 8.53364 29.5268 8.69712 29.4582 8.84642C29.3895 8.99572 29.2864 9.12655 29.1572 9.22813C28.9104 9.42823 28.6332 9.5875 28.336 9.6999C27.9302 9.86778 27.5072 9.99089 27.0747 10.0671C26.9854 10.0834 26.895 10.092 26.8042 10.0927C26.8042 10.0078 26.8042 9.88545 26.8042 9.81044C26.8042 8.9123 26.8042 7.96875 26.8042 7.07061C26.7984 6.8705 26.8407 6.67191 26.9276 6.49156C27.0145 6.31121 27.1435 6.15438 27.3037 6.03429C27.7616 5.66911 28.3637 5.51514 28.9243 5.41842C29.1197 5.37696 29.3348 5.36117 29.552 5.32959Z" fill="#2093BF"></path><path d="M42.0034 50.1105C42.0034 49.9684 42.0034 49.8796 42.0034 49.7927C42.0034 49.0545 42.0172 48.2491 42.0034 47.5109C42.0123 47.3264 42.0632 47.1465 42.1521 46.9847C42.2411 46.8229 42.3657 46.6835 42.5166 46.5772C43.0318 46.1824 43.7365 46.0422 44.3702 46.0067V46.0422C44.3801 46.133 44.3702 46.2396 44.3702 46.3443C44.3702 47.0924 44.3603 47.8918 44.3702 48.64C44.3807 48.7885 44.356 48.9375 44.298 49.0747C44.24 49.2119 44.1505 49.3335 44.0366 49.4295C43.9185 49.5206 43.7923 49.6005 43.6596 49.6684C43.1335 49.8998 42.5749 50.049 42.0034 50.1105V50.1105Z" fill="#2093BF"></path><path d="M50.1106 55.5092V55.1776C50.1106 54.4512 50.1224 53.6379 50.1106 52.9115C50.1167 52.7389 50.1629 52.57 50.2455 52.4183C50.328 52.2665 50.4447 52.136 50.5863 52.0371C50.9579 51.7702 51.3887 51.5975 51.8417 51.5337C52.0448 51.4904 52.252 51.4698 52.4596 51.4725C52.4596 51.5673 52.4596 51.7291 52.4596 51.8259C52.4596 52.5641 52.4477 53.3004 52.4596 54.0367C52.4642 54.1718 52.4392 54.3063 52.3863 54.4308C52.3335 54.5552 52.254 54.6666 52.1536 54.7572C51.984 54.9308 51.7831 55.0707 51.5614 55.1697C51.227 55.296 50.8831 55.3957 50.533 55.4678C50.3935 55.4924 50.2523 55.5063 50.1106 55.5092V55.5092Z" fill="#2093BF"></path><path d="M23.638 9.14924C23.638 9.74143 23.638 10.3889 23.638 10.987C23.641 11.0959 23.6191 11.2041 23.5739 11.3033C23.5288 11.4025 23.4616 11.4901 23.3775 11.5594C22.9432 11.9365 22.2938 12.0727 21.7154 12.1516V11.8437C21.7154 11.2653 21.7273 10.6415 21.7154 10.0671C21.711 9.90561 21.7506 9.74593 21.8298 9.60513C21.9091 9.46433 22.0251 9.3477 22.1655 9.26768C22.6151 9.00978 23.1201 8.86356 23.638 8.84131V9.14924Z" fill="#2093BF"></path><path d="M24.5559 13.3873V13.1543C24.5559 12.5168 24.5737 11.8002 24.5737 11.1626C24.5722 11.0723 24.5889 10.9825 24.6228 10.8988C24.6567 10.815 24.7071 10.7389 24.7711 10.6751C25.2113 10.223 25.8745 10.1263 26.4884 10.071C26.4884 10.1954 26.4884 10.2684 26.4884 10.3652C26.4884 10.9573 26.4884 11.587 26.4884 12.1851C26.4912 12.299 26.4694 12.4121 26.4244 12.5167C26.3795 12.6213 26.3124 12.7149 26.2278 12.7911C25.7837 13.1583 25.0573 13.3162 24.5559 13.3873Z" fill="#2093BF"></path><path d="M48.646 46.7529V47.0688C48.646 47.5267 48.6361 47.9847 48.646 48.4505C48.648 48.5812 48.6168 48.7102 48.5554 48.8255C48.4939 48.9408 48.4042 49.0386 48.2946 49.1098C47.905 49.3249 47.476 49.4591 47.0333 49.5046C47.0333 49.4099 47.0333 49.3368 47.0333 49.2618C47.0333 48.7841 47.0333 48.2433 47.0333 47.7656C47.0317 47.6643 47.0527 47.5639 47.0947 47.4717C47.1366 47.3796 47.1986 47.2979 47.2761 47.2326C47.6353 46.899 48.1643 46.7944 48.646 46.7529Z" fill="#2093BF"></path><path d="M36.3206 46.3877C36.3206 45.9041 36.3206 45.4007 36.3206 44.9744C36.3206 44.7947 36.5476 44.6368 36.6936 44.5401C36.9414 44.4007 37.2228 44.3324 37.5069 44.3427V44.4138C37.5069 44.8224 37.5069 45.2685 37.5069 45.6791C37.5059 45.7615 37.4849 45.8425 37.4457 45.915C37.4065 45.9876 37.3503 46.0495 37.2819 46.0956C36.9838 46.2553 36.6571 46.3546 36.3206 46.3877V46.3877Z" fill="#2093BF"></path><path opacity="0.32" d="M21.1685 17.0806C20.9909 17.12 20.8132 17.1635 20.6237 17.2207C20.4342 17.281 20.25 17.357 20.073 17.4477C20.4223 17.2823 20.7901 17.159 21.1685 17.0806V17.0806Z" fill="#2093BF"></path><path opacity="0.32" d="M21.7134 16.9858L21.8713 16.9661L21.7134 16.9858Z" fill="#2093BF"></path><path opacity="0.32" d="M21.22 17.0706C21.3424 17.0449 21.4588 17.0232 21.5654 17.0074C21.4509 17.0252 21.3345 17.0449 21.22 17.0706Z" fill="#2093BF"></path><path d="M19.0447 22.4082C19.0447 22.4082 22.0056 22.1615 22.2346 20.6099C22.2346 19.2282 22.2346 16.9344 22.2346 16.9344C22.2346 16.9344 19.4039 17.045 19.0486 18.5807L19.0447 22.4082Z" fill="#2093BF"></path><path d="M84.7059 21.974C84.1502 19.005 82.6282 16.3032 80.377 14.2894C77.9158 11.9925 74.7085 10.6608 71.3442 10.5389C70.0431 10.4811 68.7404 10.6087 67.4753 10.9179C65.4147 11.4104 63.4892 12.3543 61.8377 13.6814C61.7568 13.7466 61.6699 13.8038 61.587 13.863C61.5312 13.7472 61.485 13.6271 61.4488 13.5038C61.0517 12.1525 60.5069 10.849 59.8243 9.61706C57.7674 5.97908 54.8756 3.23727 51.056 1.51796C49.3221 0.738914 47.4699 0.255849 45.5764 0.0888275C45.2507 0.0592183 44.5618 0 44.1295 0C43.6972 0 42.9806 0 42.8543 0C38.4158 0.28748 34.2413 2.20948 31.137 5.39479C30.7323 5.8034 30.3474 6.29491 29.9526 6.71733C29.9526 7.40229 29.9526 8.0991 29.9526 8.77221C29.9601 8.93645 29.9281 9.1001 29.8594 9.24947C29.7908 9.39885 29.6873 9.52963 29.5578 9.63088L29.54 9.64469V10.2369C29.54 10.7264 29.54 11.2238 29.54 11.7055V12.0115C30.3088 11.9198 31.0556 11.6947 31.7469 11.3462C31.8944 11.2547 32.0326 11.1489 32.1595 11.0304C32.2902 10.9289 32.3944 10.7972 32.4632 10.6467C32.5319 10.4961 32.5632 10.3311 32.5543 10.1658C32.5543 9.89736 32.5543 9.6289 32.5543 9.37624C33.8995 7.70529 35.5442 6.29955 37.4042 5.23095V4.89144C37.4042 4.43151 37.4042 3.97158 37.4042 3.50967C37.3986 3.33431 37.4324 3.15992 37.5031 2.99936C37.5738 2.83879 37.6797 2.69614 37.8128 2.58192C38.0104 2.4275 38.2242 2.29512 38.4504 2.18713C38.9725 1.96985 39.528 1.84366 40.0927 1.81406C40.1283 1.81406 40.0927 2.55626 40.0927 2.90367C40.0927 3.25109 40.075 4.03869 40.0927 4.03474C40.1875 4.01106 40.5922 3.89657 40.6849 3.86696C42.0442 3.4422 43.4576 3.2155 44.8815 3.19384C46.3457 3.14973 47.8086 3.31862 49.2242 3.69522C53.2432 4.75128 56.364 7.03317 58.7564 10.4244C59.8263 11.9511 60.6484 13.6372 61.1922 15.4205C61.2297 15.5389 61.2751 15.6554 61.3324 15.8152C62.8363 14.5566 64.6006 13.6472 66.4982 13.1524C68.3443 12.6743 70.2751 12.6237 72.1437 13.0043C74.0561 13.38 75.8586 14.1838 77.4161 15.3553C78.9528 16.4915 80.206 17.9677 81.0777 19.6684C82.7299 22.8583 82.9648 26.137 81.9877 29.6131C80.5112 34.244 77.27 37.0944 72.6687 38.4307C73.4998 43.9578 71.4252 48.8591 67.424 52.1181C62.9846 55.5054 57.9787 55.9278 52.8168 53.9203C52.7753 54.1591 52.8661 54.4907 52.7714 54.696C52.6433 54.9336 52.4437 55.1249 52.2009 55.2428C52.2976 55.304 52.5089 55.4402 52.6115 55.5014C53.0714 55.7383 53.5215 55.9949 53.9933 56.2022C55.6829 56.9477 57.5185 57.3039 59.3644 57.2444C60.1112 57.2198 60.8547 57.1326 61.587 56.9838C66.4804 55.9633 70.1381 53.1998 72.5069 48.7762C74.1354 45.7343 74.619 42.5188 74.1196 39.1038C74.1077 39.019 74.1058 38.9341 74.0979 38.8374C74.2163 38.7999 74.3091 38.7663 74.4019 38.7406C77.135 38.0197 79.5832 36.482 81.4192 34.3328C84.5085 30.76 85.5803 26.6068 84.7059 21.974Z" fill="#2093BF"></path></g><defs><clipPath id="clip0_40_184"><rect width="85" height="57.2444" fill="white"></rect></clipPath></defs></svg> 